PathFileType	4	(X/Y/Z)	P:\Projects\LMB_grand_challenge_database\project_only\opensim\experimental_data\SixthCompetition/DM_smooth1_new.trc
DataRate	CameraRate	NumFrames	NumMarkers	Units	OrigDataRate	OrigDataStartFrame	OrigNumFrames
120	120	7	68	mm	120	46	370
Frame#	Time	Sternum			Neck			R_Shoulder			L_Shoulder			Xiphoid			Thoracic			R_Asis			L_Asis			R_Psis			L_Psis			Lumbar			R_Elbow			R_ElbowMedial			R_ShoulderAnterior			R_ShoulderPosterior			R_Wrist			R_Radius			R_Ulna			L_Elbow			L_ElbowMedial			L_ShoulderAnterior			L_ShoulderPosterior			L_Wrist			L_Ulna			L_Radius			L_Thigh_Superior			L_Thigh_Inferior			L_Thigh_Lateral			L_Knee_Lateral			L_Knee_Medial			L_Patella			L_Shank_Superior			L_Shank_Inferior			L_Shank_Lateral			L_Ankle_Lateral			L_Ankle_Medial			R_Thigh_Superior			R_Thigh_Inferior			R_Thigh_Lateral			R_Knee_Lateral			R_Knee_Medial			R_Patella			R_Shank_Superior			R_Shank_Inferior			R_Shank_Lateral			R_Ankle_Lateral			RankleMedial			R_Heel			R_Toe			R_Midfoot_Medial			R_Midfoot_Lateral			R_Hindfoot			R_Midfoot_Superior			R_ToeMedial			R_ToeLateral			L_Heel			L_Toe			L_Midfoot_Medial			L_Midfoot_Lateral			L_Hindfoot			L_Midfoot_Superior			L_ToeMedial			L_ToeLateral			Oglobal			Sacral			Xglobal			Yglobal			Zglobal			
		X1	Y1	Z1	X2	Y2	Z2	X3	Y3	Z3	X4	Y4	Z4	X5	Y5	Z5	X6	Y6	Z6	X7	Y7	Z7	X8	Y8	Z8	X9	Y9	Z9	X10	Y10	Z10	X11	Y11	Z11	X12	Y12	Z12	X13	Y13	Z13	X14	Y14	Z14	X15	Y15	Z15	X16	Y16	Z16	X17	Y17	Z17	X18	Y18	Z18	X19	Y19	Z19	X20	Y20	Z20	X21	Y21	Z21	X22	Y22	Z22	X23	Y23	Z23	X24	Y24	Z24	X25	Y25	Z25	X26	Y26	Z26	X27	Y27	Z27	X28	Y28	Z28	X29	Y29	Z29	X30	Y30	Z30	X31	Y31	Z31	X32	Y32	Z32	X33	Y33	Z33	X34	Y34	Z34	X35	Y35	Z35	X36	Y36	Z36	X37	Y37	Z37	X38	Y38	Z38	X39	Y39	Z39	X40	Y40	Z40	X41	Y41	Z41	X42	Y42	Z42	X43	Y43	Z43	X44	Y44	Z44	X45	Y45	Z45	X46	Y46	Z46	X47	Y47	Z47	X48	Y48	Z48	X49	Y49	Z49	X50	Y50	Z50	X51	Y51	Z51	X52	Y52	Z52	X53	Y53	Z53	X54	Y54	Z54	X55	Y55	Z55	X56	Y56	Z56	X57	Y57	Z57	X58	Y58	Z58	X59	Y59	Z59	X60	Y60	Z60	X61	Y61	Z61	X62	Y62	Z62	X63	Y63	Z63	X64	Y64	Z64	X65	Y65	Z65	X66	Y66	Z66	X67	Y67	Z67	X68	Y68	Z68	

47	1.483333	-1077.09	1368.41	199.925	-1247.3	1429.61	198.622	-1146.4	1374.08	372.046	-1153.46	1392.74	25.016	-1047.21	1195.78	198.124	-1320.28	1243.11	182.057	-1126.65	960.946	315.946	-1115.87	963.408	43.2114	-1328.25	994.934	202.487	-1326.98	993.847	122.238	-1325.3	1043.65	166.384	-1208.66	1060.56	460.121	-0	0	0	-0	0	0	-0	0	0	-1178.89	778.62	453.308	-1174.16	788.498	410.439	-1225.83	793.335	463.012	-1059.47	1069.84	-60.5692	-0	0	0	-0	0	0	-0	0	0	-908.778	852.025	-16.4946	-946.177	845.211	-46.864	-934.454	860.449	25.2336	-1191.23	774.462	15.173	-1203.27	555.052	42.2027	-1142.42	642.018	58.413	-0	0	0	-0	0	0	-1193.45	437.606	88.37779999999999	-1303.42	427.277	35.8958	-1523.7	273.253	44.7577	-1391.44	316.952	105.846	-0	0	0	-0	0	0	-1165.62	779.41	337.092	-1074.78	583.621	285.513	-1051.76	722.543	311.684	-0	0	0	-0	0	0	-976.943	525.1130000000001	211.066	-1077.58	393.039	296.596	-1065.05	186.438	278.945	-1009.52	315.653	208.926	-0	0	0	-0	0	0	-1144.28	61.4008	219.934	-845.408	55.9976	242.82	-918.806	32.8534	185.822	-938.528	30.8068	301.404	-1047.77	28.3036	280.407	-981.764	120.359	235.536	-875.5549999999999	42.1311	199.153	-888.934	42.7279	289.073	-1651.63	262.962	96.8887	-1493.41	22.049	97.82210000000001	-1559.66	62.2452	146.099	-1564.86	72.37050000000001	32.1838	-1627.23	160.177	39.7598	-1514.36	153.363	93.0994	-1536.25	36.0917	136.36	-1527.84	36.7799	42.3915	-0	0	0	-1327.61	994.39	162.362	-200	0	0	-0	0	200	-0	200	0	
48	1.491667	-1067.84	1369.61	200.625	-1238.3	1430.64	199.868	-1136.55	1375.24	372.812	-1144.78	1393.92	25.735	-1037.66	1197.19	198.879	-1310.98	1244.13	183.57	-1116.64	962.6319999999999	317.404	-1106.65	964.178	44.3825	-1318.58	995.982	204.344	-1317.5	994.746	124.027	-1315.8	1044.65	168.02	-1196.61	1061.38	461.585	-0	0	0	-0	0	0	-0	0	0	-1166.09	779.776	454.959	-1161.75	789.841	411.424	-1212.65	793.796	464.494	-1052.93	1070.2	-60.0148	-0	0	0	-0	0	0	-0	0	0	-905.582	850.268	-16.5759	-942.812	844.053	-47.4207	-931.1609999999999	858.365	24.942	-1178.39	775.4059999999999	16.0961	-1186.48	555.6130000000001	41.6707	-1127.13	643.407	57.7163	-0	0	0	-0	0	0	-1175.47	437.465	87.3467	-1285.9	428.753	35.1617	-1508.7	279.688	45.4264	-1374.58	319.501	105.896	-0	0	0	-0	0	0	-1156.93	780.101	337.39	-1068.01	583.676	285.941	-1043.44	722.169	312.63	-0	0	0	-0	0	0	-970.649	524.226	211.139	-1073.16	393.176	296.848	-1063.35	186.548	278.692	-1006.1	314.86	208.817	-0	0	0	-0	0	0	-1144.24	61.5314	219.986	-845.332	55.4098	243.052	-918.854	32.5752	185.622	-938.451	30.5613	301.227	-1047.73	28.3005	280.313	-981.563	120.207	235.412	-875.362	41.6951	199.126	-888.845	42.5212	288.865	-1633.9	274.12	98.3445	-1490.41	19.4935	97.60080000000001	-1551.22	69.1846	146.637	-1556.99	79.6284	32.7787	-1614.6	170.565	41.33	-1502.22	158.171	93.24339999999999	-1530.44	38.3998	136.434	-1523.85	38.2085	41.8648	-0	0	0	-1318.04	995.364	164.185	-200	0	0	-0	0	200	-0	200	0	
49	1.5	-1058.79	1370.87	201.359	-1229.1	1431.8	201.027	-1126.65	1376.37	373.655	-1136.32	1394.96	26.6677	-1028.04	1198.64	199.61	-1301.75	1245.24	185.057	-1107.04	963.976	318.831	-1097.56	964.706	45.7205	-1309.18	997.144	206.078	-1308.18	995.854	125.758	-1306.38	1045.79	169.545	-1184.64	1062.32	463.18	-0	0	0	-0	0	0	-0	0	0	-1152.25	780.7859999999999	455.516	-1148.5	791.023	411.991	-1199.08	794.611	465.942	-1047.06	1070.46	-59.5414	-0	0	0	-0	0	0	-0	0	0	-902.729	848.552	-17.1547	-939.682	842.468	-47.9869	-928.264	856.398	24.5445	-1166.44	776.936	16.6647	-1169.72	556.681	40.971	-1112.34	645.372	56.7939	-0	0	0	-0	0	0	-1156.84	438.081	86.0712	-1268.34	431.066	34.3164	-1492.77	285.688	45.9058	-1357.13	322.039	105.425	-0	0	0	-0	0	0	-1149.67	781.396	337.681	-1061.54	583.645	286.432	-1035.33	721.8	313.302	-0	0	0	-0	0	0	-964.659	523.122	211.316	-1068.7	393.139	296.55	-1061.94	186.623	278.494	-1002.94	314.287	208.786	-0	0	0	-0	0	0	-1144.24	61.6196	219.962	-845.258	55.1247	243.018	-918.928	32.2184	185.554	-938.492	30.3448	301.166	-1047.72	28.2566	280.318	-981.4109999999999	120.028	235.288	-875.216	41.3737	199.098	-888.734	42.2782	288.856	-1616.03	283.548	100.294	-1485.91	17.2126	96.02079999999999	-1542.7	74.9348	147.955	-1549.11	85.58880000000001	34.15	-1602.45	179.344	43.1852	-1490.18	161.579	94.0008	-1522.85	40.7791	135.941	-1519.07	40.8873	42.1723	-0	0	0	-1308.68	996.499	165.918	-200	0	0	-0	0	200	-0	200	0	
50	1.508333	-1049.72	1372.21	201.878	-1219.93	1433.11	202.281	-1116.92	1377.67	374.427	-1128.04	1396.37	27.3476	-1018.86	1199.93	200.112	-1292.55	1246.47	186.592	-1097.8	965.749	319.192	-1088.71	965.784	46.5285	-1300.03	998.482	206.484	-1298.96	996.9690000000001	127.529	-1297.41	1047.06	170.207	-1172.56	1063.3	464.684	-0	0	0	-0	0	0	-0	0	0	-1138.44	781.933	456.304	-1135.43	792.478	412.998	-1185.04	795.487	467.247	-1041.66	1070.71	-59.288	-0	0	0	-0	0	0	-0	0	0	-900.029	846.803	-17.8971	-937.155	841.325	-48.9427	-925.478	854.814	23.7631	-1152.21	776.324	19.4217	-1153.28	557.851	40.1184	-1097.62	647.602	55.6042	-0	0	0	-0	0	0	-1136.61	440.287	83.6174	-1249.93	433.395	33.5336	-1476.4	291.227	46.3847	-1340.42	325.481	106.174	-0	0	0	-0	0	0	-1139.51	781.759	338.843	-1055.24	583.497	287.067	-1027.7	721.366	314.095	-0	0	0	-0	0	0	-959.241	522.183	211.875	-1064.63	393.292	296.886	-1060.42	186.66	278.421	-999.938	313.645	209.005	-0	0	0	-0	0	0	-1144.21	61.6829	219.991	-845.254	54.9226	242.96	-918.961	31.8542	185.509	-938.463	30.2185	301.135	-1047.68	28.3365	280.312	-981.255	119.86	235.123	-875.073	41.0708	199.103	-888.708	42.1286	288.874	-1598.34	291.026	103.788	-1478.38	17.706	92.2496	-1531.32	79.4502	147.521	-1540.05	91.583	34.0194	-1590.52	187.154	44.9843	-1477.81	165.566	93.2655	-1510.92	44.3147	133.824	-1511.51	45.6818	40.9385	-0	0	0	-1299.49	997.725	167.007	-200	0	0	-0	0	200	-0	200	0	
51	1.516667	-1040.64	1373.59	202.244	-1210.81	1434.51	203.409	-1107.12	1378.95	375.15	-1120.15	1397.75	27.7072	-1010.07	1200.99	200.515	-1283.46	1247.78	188.105	-1088.09	967.264	320.43	-1080.03	966.818	47.5136	-1290.7	999.7809999999999	208.348	-1289.91	998.179	129.365	-1288.25	1048.33	171.944	-1160.45	1064.41	466.096	-0	0	0	-0	0	0	-0	0	0	-1124.65	783.22	457.271	-1122.05	794.143	413.678	-1171.07	796.359	468.683	-1036.74	1070.95	-59.1943	-0	0	0	-0	0	0	-0	0	0	-897.722	845.2910000000001	-18.984	-935.125	840.216	-49.5755	-922.826	853.465	22.79	-1140.58	777.774	20.0311	-1136.83	559.147	39.198	-1083.27	649.824	54.5595	-0	0	0	-0	0	0	-1118.13	442.384	83.0014	-1232.24	436.886	32.5516	-1458.58	296.1	46.2217	-1322.68	328.762	105.36	-0	0	0	-0	0	0	-1129.67	782.682	342.417	-1049.13	583.366	287.843	-1020.29	721.062	314.878	-0	0	0	-0	0	0	-954.567	521.01	212.278	-1060.97	393.216	297.585	-1059.2	186.744	278.56	-997.255	313.196	209.07	-0	0	0	-0	0	0	-1144.22	61.7238	219.988	-845.153	54.6149	242.937	-919	31.5656	185.608	-938.538	30.0972	301.231	-1047.72	28.3827	280.35	-981.178	119.718	235.098	-875.079	40.9249	199.058	-888.639	41.9849	288.835	-1581.17	296.86	108.052	-1466.04	21.8344	87.209	-1516.81	83.3154	145.802	-1528.46	97.8433	32.8443	-1577.18	194.149	46.9533	-1463.54	169.818	91.7756	-1495.52	48.6177	130.928	-1499.96	51.8923	38.4616	-0	0	0	-1290.31	998.98	168.857	-200	0	0	-0	0	200	-0	200	0	
52	1.525	-1031.77	1374.88	202.605	-1201.65	1435.86	204.53	-1097.39	1380.34	375.719	-1111.57	1398.88	28.5501	-1000.99	1202.44	200.631	-1274.41	1249.14	189.711	-1078.79	968.542	321.833	-1071.48	967.9109999999999	48.2969	-1281.62	1001.18	210.162	-1281	999.46	131.015	-1279.29	1049.68	173.556	-1148.39	1065.61	467.367	-0	0	0	-0	0	0	-0	0	0	-1110.54	784.701	458.092	-1108.77	795.338	414.431	-1157.26	797.651	470.089	-1032.45	1071.15	-59.3313	-0	0	0	-0	0	0	-0	0	0	-895.672	843.736	-20.2773	-933.431	838.947	-50.2867	-920.177	852.116	21.6743	-1130.59	780.24	19.5699	-1120.57	560.938	38.0264	-1069.11	652.48	53.7105	-0	0	0	-0	0	0	-1097.77	444.177	81.68899999999999	-1214.29	440.066	31.8849	-1442.8	301.885	47.4818	-1304.6	331.637	104.348	-0	0	0	-0	0	0	-1121.4	783.678	343.95	-1043.51	583.45	288.681	-1013.04	720.7670000000001	315.517	-0	0	0	-0	0	0	-949.534	519.729	212.983	-1057.33	393.273	297.657	-1058.02	186.765	278.784	-994.72	312.395	209.017	-0	0	0	-0	0	0	-1144.21	61.754	219.899	-845.092	54.3743	243.006	-919.026	31.3074	185.546	-938.573	29.9134	301.168	-1047.63	28.4045	280.264	-981.119	119.55	234.992	-875.12	40.764	199.028	-888.699	41.9926	288.89	-1564.67	301.586	112.649	-1448.24	28.3182	82.6413	-1499.21	87.35429999999999	144.072	-1513.69	104.343	31.7877	-1563.23	200.369	48.7511	-1447.31	175.028	90.634	-1477.08	52.761	127.584	-1484.37	58.5965	35.5011	-0	0	0	-1281.31	1000.32	170.588	-200	0	0	-0	0	200	-0	200	0	
53	1.533333	-1022.75	1376.07	203.211	-1192.61	1437.3	205.673	-1087.6	1381.72	376.44	-1103.39	1400.38	29.0531	-992.091	1203.7	200.872	-1265.53	1250.56	191.395	-1069.52	969.953	322.958	-1063.04	969.14	49.1358	-1272.63	1002.62	211.8	-1272.17	1000.83	132.77	-1270.42	1051.1	175.11	-1136.37	1066.94	468.634	-0	0	0	-0	0	0	-0	0	0	-1096.54	786.402	459.022	-1095.02	797.235	415.105	-1142.76	798.826	471.083	-1028.2	1071.18	-59.4818	-0	0	0	-0	0	0	-0	0	0	-894.103	842.557	-21.7514	-931.732	837.832	-51.1794	-917.99	851.026	20.5104	-1120.71	782.713	19.2972	-1104.05	562.534	37.0009	-1054.72	654.8579999999999	52.9901	-0	0	0	-0	0	0	-1078.97	446.722	80.8612	-1196	443.165	31.3816	-1427.82	307.534	49.7298	-1286.38	334.386	103.6	-0	0	0	-0	0	0	-1113.39	784.5119999999999	344.961	-1038.21	583.438	289.635	-1006.17	720.408	316.323	-0	0	0	-0	0	0	-944.765	518.8150000000001	213.772	-1054.17	393.325	298.654	-1056.99	186.792	278.977	-992.586	311.797	209.493	-0	0	0	-0	0	0	-1144.17	61.6936	219.848	-845.074	54.1744	243.083	-918.978	31.1615	185.617	-938.583	29.8084	301.23	-1047.64	28.3557	280.249	-981.078	119.435	235.004	-875.192	40.6767	198.933	-888.679	41.8988	288.901	-1548.07	304.6	116.964	-1426.94	34.8116	78.9144	-1478.42	90.7641	141.246	-1495.17	110.601	29.7467	-1548.78	206.289	49.6478	-1429.05	180.861	89.42019999999999	-1457.13	56.7521	124.205	-1465.45	64.5485	32.0855	-0	0	0	-1272.4	1001.73	172.285	-200	0	0	-0	0	200	-0	200	0	
